<?xml version="1.0" encoding="UTF-8" standalone="no"?>
<svg
   viewBox="0 0 290.29998 290.29998"
   version="1.1"
   id="svg14"
   sodipodi:docname="logo.svg"
   xml:space="preserve"
   width="290.29999"
   height="290.29999"
   inkscape:export-filename="logo1.svg"
   inkscape:export-xdpi="165.34621"
   inkscape:export-ydpi="165.34621"
   xmlns:inkscape="http://www.inkscape.org/namespaces/inkscape"
   xmlns:sodipodi="http://sodipodi.sourceforge.net/DTD/sodipodi-0.dtd"
   xmlns:xlink="http://www.w3.org/1999/xlink"
   xmlns="http://www.w3.org/2000/svg"
   xmlns:svg="http://www.w3.org/2000/svg"><sodipodi:namedview
     id="namedview14"
     pagecolor="#ffffff"
     bordercolor="#666666"
     borderopacity="1.0"
     inkscape:showpageshadow="2"
     inkscape:pageopacity="0.0"
     inkscape:pagecheckerboard="0"
     inkscape:deskcolor="#d1d1d1" /><defs
     id="defs10"><linearGradient
       id="linearGradient81"
       inkscape:collect="always"><stop
         style="stop-color:#a50657;stop-opacity:1;"
         offset="0.43111613"
         id="stop81" /><stop
         style="stop-color:#0953aa;stop-opacity:1;"
         offset="0.55995548"
         id="stop86" /></linearGradient><linearGradient
       id="linearGradient24"
       inkscape:collect="always"><stop
         style="stop-color:#000000;stop-opacity:1;"
         offset="0"
         id="stop24" /><stop
         style="stop-color:#000000;stop-opacity:0;"
         offset="1"
         id="stop25" /></linearGradient><style
       id="style1">.cls-1{fill:url(#linear-gradient);}.cls-2{fill:url(#linear-gradient-2);}.cls-3{fill:url(#linear-gradient-3);}.cls-4{fill:url(#linear-gradient-4);}.cls-5{fill:url(#linear-gradient-5);}</style><linearGradient
       id="linear-gradient"
       x1="101.85"
       y1="-12.91"
       x2="101.85"
       y2="224.03999"
       gradientUnits="userSpaceOnUse"><stop
         offset="0"
         stop-color="#ffd200"
         id="stop1" /><stop
         offset="0.08"
         stop-color="#ffb500"
         id="stop2" /><stop
         offset="0.2"
         stop-color="#ff8c00"
         id="stop3" /><stop
         offset="0.3"
         stop-color="#ff7300"
         id="stop4" /><stop
         offset="0.36"
         stop-color="#ff6a00"
         id="stop5" /><stop
         offset="0.48"
         stop-color="#fc4f0e"
         id="stop6" /><stop
         offset="0.65"
         stop-color="#f92f1e"
         id="stop7" /><stop
         offset="0.79"
         stop-color="#f81b27"
         id="stop8" /><stop
         offset="0.89"
         stop-color="#f7142b"
         id="stop9" /><stop
         offset="1"
         stop-color="#df162e"
         id="stop10" /></linearGradient><linearGradient
       id="linear-gradient-2"
       x1="24.84"
       y1="-12.91"
       x2="24.84"
       y2="224.03999"
       xlink:href="#linear-gradient" /><linearGradient
       id="linear-gradient-3"
       x1="178.89999"
       y1="-12.91"
       x2="178.89999"
       y2="224.03999"
       xlink:href="#linear-gradient" /><linearGradient
       id="linear-gradient-4"
       x1="145.06"
       y1="-12.91"
       x2="145.06"
       y2="224.03999"
       xlink:href="#linear-gradient" /><linearGradient
       id="linear-gradient-5"
       x1="58.639999"
       y1="-12.91"
       x2="58.639999"
       y2="224.03999"
       xlink:href="#linear-gradient" /><linearGradient
       inkscape:collect="always"
       xlink:href="#linear-gradient"
       id="linearGradient14"
       gradientUnits="userSpaceOnUse"
       x1="101.85"
       y1="-12.91"
       x2="101.85"
       y2="224.03999" /><linearGradient
       inkscape:collect="always"
       xlink:href="#linearGradient24"
       id="linearGradient25"
       x1="222.7"
       y1="384.39999"
       x2="802.29999"
       y2="384.39999"
       gradientUnits="userSpaceOnUse" /><linearGradient
       inkscape:collect="always"
       xlink:href="#linearGradient24"
       id="linearGradient50"
       gradientUnits="userSpaceOnUse"
       x1="222.7"
       y1="384.39999"
       x2="802.29999"
       y2="384.39999" /><linearGradient
       inkscape:collect="always"
       xlink:href="#linearGradient24"
       id="linearGradient52"
       gradientUnits="userSpaceOnUse"
       x1="222.7"
       y1="384.39999"
       x2="802.29999"
       y2="384.39999" /><linearGradient
       inkscape:collect="always"
       xlink:href="#linearGradient81"
       id="linearGradient95"
       x1="222.2"
       y1="384.39999"
       x2="802.79999"
       y2="384.39999"
       gradientUnits="userSpaceOnUse" /><linearGradient
       inkscape:collect="always"
       xlink:href="#linearGradient81"
       id="linearGradient2"
       gradientUnits="userSpaceOnUse"
       x1="222.2"
       y1="384.39999"
       x2="802.79999"
       y2="384.39999" /><linearGradient
       inkscape:collect="always"
       xlink:href="#linearGradient81"
       id="linearGradient3"
       gradientUnits="userSpaceOnUse"
       x1="222.2"
       y1="384.39999"
       x2="802.79999"
       y2="384.39999" /></defs><g
     id="g2"
     transform="matrix(0,-0.5,0.5,0,-47.05,401.4)"
     style="fill:url(#linearGradient95);fill-opacity:1;fill-rule:nonzero;stroke:url(#linearGradient25)">&#10;	<g
   id="g1"
   style="fill:url(#linearGradient3);fill-opacity:1;fill-rule:nonzero;stroke:url(#linearGradient52)">&#10;		<path
   class="st0"
   d="m 779.7,352.2 h -61.2 c -12.9,0 -25.8,-9.7 -29,-22.5 l -12.9,-35.4 c -6.4,-9.7 -3.2,-25.8 6.4,-35.4 L 725,217 c 9.7,-9.7 9.7,-22.5 0,-32.2 l -12.9,-12.9 c -9.7,-9.7 -22.5,-9.7 -32.2,0 L 638,213.7 c -9.7,9.7 -25.8,9.7 -35.4,3.2 l -35.4,-16.1 c -12.9,-3.2 -22.5,-16.1 -22.5,-29 v -54.7 c 0,-12.9 -9.7,-22.5 -22.5,-22.5 h -19.3 c -12.9,0 -22.5,9.7 -22.5,22.5 v 54.7 c 0,12.9 -9.7,25.8 -22.5,29 L 419.1,217 c -9.7,6.4 -25.8,3.2 -35.4,-6.4 L 345.1,172 c -9.7,-9.7 -22.5,-9.7 -32.2,0 L 300,184.8 c -9.7,9.7 -9.7,22.5 0,32.2 l 38.6,38.6 c 9.7,9.7 9.7,25.8 3.2,35.4 l -16.1,38.6 c -3.2,12.9 -16.1,22.5 -29,22.5 h -51.5 c -12.9,0 -22.5,9.7 -22.5,22.5 V 394 c 0,12.9 9.7,22.5 22.5,22.5 h 51.5 c 12.9,0 25.8,9.7 29,22.5 l 16.1,38.6 c 6.4,9.7 3.2,25.8 -3.2,35.4 L 300,551.8 c -9.7,9.7 -9.7,22.5 0,32.2 l 12.9,12.9 c 9.7,9.7 22.5,9.7 32.2,0 l 38.6,-38.6 c 9.7,-9.7 25.8,-9.7 35.4,-6.4 l 38.6,16.1 c 12.9,3.2 22.5,16.1 22.5,29 v 54.7 c 0,12.9 9.7,22.5 22.5,22.5 H 522 c 12.9,0 22.5,-9.7 22.5,-22.5 V 597 c 0,-12.9 9.7,-25.8 22.5,-29 l 35.4,-16.1 c 9.7,-6.4 25.8,-3.2 35.4,3.2 l 41.9,41.9 c 9.7,9.7 22.5,9.7 32.2,0 L 725,584 c 9.7,-9.7 9.7,-22.5 0,-32.2 l -41.9,-41.9 c -9.7,-9.7 -9.7,-25.8 -6.4,-35.4 l 12.9,-35.4 c 3.2,-12.9 16.1,-22.5 29,-22.5 h 61.2 c 12.9,0 22.5,-9.7 22.5,-22.5 v -19.3 c -0.1,-13 -9.7,-22.6 -22.6,-22.6 z m -144.9,35.4 c 0,70.8 -57.9,125.6 -125.6,125.6 -70.8,0 -125.6,-57.9 -125.6,-125.6 0,-67.7 54.8,-125.6 125.7,-125.6 70.9,0 125.5,54.8 125.5,125.6 z"
   id="path1"
   style="fill:url(#linearGradient2);fill-opacity:1;fill-rule:nonzero;stroke:url(#linearGradient50)" />&#10;	</g>&#10;</g><g
     id="Layer_2"
     data-name="Layer 2"
     transform="matrix(0.77775408,0,0,0.77775408,65.920192,57.244345)"><g
       id="Layer_1-2"
       data-name="Layer 1"><path
         class="cls-1"
         d="m 101.89,226.05 c 2.85,0 5.67,-0.15 8.46,-0.35 V 0.35 C 107.55,0.14 104.73,0 101.87,0 99.01,0 96.17,0.14 93.35,0.35 v 225.34 c 2.81,0.21 5.64,0.35 8.5,0.36 z"
         id="path10"
         style="fill:url(#linearGradient14)" /><path
         class="cls-2"
         d="M 11.56,50.9 9.12,48.47 A 112.82,112.82 0 0 0 0.2,63.61 C 29.62,93.5 32.72,107.92 32.68,112.75 32.57,125 17.58,144.21 0,162 a 113.69,113.69 0 0 0 8.84,15.15 c 1,-1 1.95,-1.92 2.92,-2.9 C 37.13,148.71 49.53,128.64 49.68,112.87 49.83,97.1 37.36,77 11.56,50.9 Z"
         id="path11"
         style="fill:url(#linear-gradient-2)" /><path
         class="cls-3"
         d="m 192,174.29 2.92,2.9 A 113.69,113.69 0 0 0 203.74,162 c -17.57,-17.83 -32.56,-37.09 -32.68,-49.29 -0.11,-11.9 14.79,-31.15 32.46,-49.18 a 112.88,112.88 0 0 0 -8.9,-15.1 l -2.44,2.43 c -25.8,26.05 -38.27,46.34 -38.12,62 0.15,15.66 12.55,35.89 37.94,61.43 z"
         id="path12"
         style="fill:url(#linear-gradient-3)" /><path
         class="cls-4"
         d="m 140.68,112.83 c 0,-22 9.81,-58.58 24.92,-93.15 A 113,113 0 0 0 150.45,11 c -16.54,37.27 -26.78,76.91 -26.78,101.87 0,24.15 11.09,64.23 27.93,101.7 a 113,113 0 0 0 14.84,-8.77 c -15.59,-35.07 -25.76,-71.73 -25.76,-92.97 z"
         id="path13"
         style="fill:url(#linear-gradient-4)" /><path
         class="cls-5"
         d="M 80,112.83 C 80,87.74 69.35,47.88 53,11.07 A 112.76,112.76 0 0 0 38.07,19.71 C 53.21,54.26 63,90.85 63,112.83 c 0,21.23 -10.17,57.88 -25.76,92.91 a 113.66,113.66 0 0 0 14.84,8.77 C 68.94,177.05 80,137 80,112.83 Z"
         id="path14"
         style="fill:url(#linear-gradient-5)" /></g></g><style
     type="text/css"
     id="style1-7">&#10;	.st0{fill:#1D1D1B;}&#10;</style></svg>
